<svg width="1400" height="1000" xmlns="http://www.w3.org/2000/svg" version="1.1">


<!-- internal style sheet -->
<style type="text/css"><![CDATA[
 rect.background{fill:white}
 rect{fill:none; stroke:rgb(25,25,25); stroke-width:2}
 text{font-family:Helvetica; text-anchor:middle; fill:rgb(25,25,25)}
 line{stroke:rgb(25,25,25); stroke-width:4}
 path{fill:none; stroke:rgb(25,25,25); stroke-width:2}

 path.p0{fill:rgb(0,102,255); stroke:rgb(25,25,25); stroke-width:2}
 path.ps0{fill:rgb(0,77,191); stroke:rgb(20,20,20); stroke-width:2}
 rect.r0{fill:rgb(0,102,255); stroke:rgb(25,25,25); stroke-width:2}
 path.p1{fill:rgb(0,255,178); stroke:rgb(25,25,25); stroke-width:2}
 path.ps1{fill:rgb(0,191,134); stroke:rgb(20,20,20); stroke-width:2}
 rect.r1{fill:rgb(0,255,178); stroke:rgb(25,25,25); stroke-width:2}
 path.p2{fill:rgb(51,255,0); stroke:rgb(25,25,25); stroke-width:2}
 path.ps2{fill:rgb(38,191,0); stroke:rgb(20,20,20); stroke-width:2}
 rect.r2{fill:rgb(51,255,0); stroke:rgb(25,25,25); stroke-width:2}
 path.p3{fill:rgb(255,230,0); stroke:rgb(25,25,25); stroke-width:2}
 path.ps3{fill:rgb(191,173,0); stroke:rgb(20,20,20); stroke-width:2}
 rect.r3{fill:rgb(255,230,0); stroke:rgb(25,25,25); stroke-width:2}
 path.p4{fill:rgb(255,0,0); stroke:rgb(25,25,25); stroke-width:2}
 path.ps4{fill:rgb(191,0,0); stroke:rgb(20,20,20); stroke-width:2}
 rect.r4{fill:rgb(255,0,0); stroke:rgb(25,25,25); stroke-width:2}
]]></style>

 <rect class="background" width="1000" height="1000"/>
  <!-- cells -->
  <path class="p2" d="M 80 920 L 290 920 L 290 710 L 80 710 L 80 920"/>
  <text x="185" y="840" style="font-size:49px">2,0</text>
  <line x1="80" y1="920" x2="80" y2="710"/>
  <line x1="80" y1="920" x2="290" y2="920"/>
  <path class="p3" d="M 395 500 L 500 500 L 500 395 L 395 395 L 395 500"/>
  <text x="448" y="461" style="font-size:26px">3,1</text>
  <path class="p3" d="M 605 500 L 710 500 L 710 395 L 605 395 L 605 500"/>
  <text x="658" y="461" style="font-size:26px">3,5</text>
  <path class="p3" d="M 500 395 L 605 395 L 605 290 L 500 290 L 500 395"/>
  <text x="553" y="356" style="font-size:26px">3,6</text>
  <path class="p3" d="M 605 395 L 710 395 L 710 290 L 605 290 L 605 395"/>
  <text x="658" y="356" style="font-size:26px">3,7</text>
  <path class="p3" d="M 710 395 L 815 395 L 815 290 L 710 290 L 710 395"/>
  <text x="763" y="355" style="font-size:25px">3,10</text>
  <path class="p3" d="M 815 395 L 920 395 L 920 290 L 815 290 L 815 395"/>
  <text x="868" y="355" style="font-size:25px">3,11</text>
  <line x1="920" y1="395" x2="920" y2="290"/>
  <path class="p3" d="M 500 290 L 605 290 L 605 185 L 500 185 L 500 290"/>
  <text x="553" y="251" style="font-size:26px">3,12</text>
  <path class="p3" d="M 605 290 L 710 290 L 710 185 L 605 185 L 605 290"/>
  <text x="658" y="250" style="font-size:25px">3,13</text>
  <path class="p3" d="M 500 185 L 605 185 L 605 80 L 500 80 L 500 185"/>
  <text x="553" y="145" style="font-size:25px">3,14</text>
  <line x1="500" y1="80" x2="605" y2="80"/>
  <path class="p3" d="M 605 185 L 710 185 L 710 80 L 605 80 L 605 185"/>
  <text x="658" y="145" style="font-size:25px">3,15</text>
  <line x1="605" y1="80" x2="710" y2="80"/>
  <path class="p3" d="M 710 290 L 815 290 L 815 185 L 710 185 L 710 290"/>
  <text x="763" y="250" style="font-size:25px">3,16</text>
  <path class="p3" d="M 815 290 L 920 290 L 920 185 L 815 185 L 815 290"/>
  <text x="868" y="250" style="font-size:24px">3,17</text>
  <line x1="920" y1="290" x2="920" y2="185"/>
  <path class="p3" d="M 710 185 L 815 185 L 815 80 L 710 80 L 710 185"/>
  <text x="763" y="145" style="font-size:24px">3,18</text>
  <line x1="710" y1="80" x2="815" y2="80"/>
  <path class="p3" d="M 815 185 L 920 185 L 920 80 L 815 80 L 815 185"/>
  <text x="868" y="145" style="font-size:24px">3,19</text>
  <line x1="920" y1="185" x2="920" y2="80"/>
  <line x1="815" y1="80" x2="920" y2="80"/>
  <path class="p3" d="M 395 605 L 500 605 L 500 500 L 395 500 L 395 605"/>
  <text x="448" y="566" style="font-size:26px">3,23</text>
  <path class="p3" d="M 500 605 L 605 605 L 605 500 L 500 500 L 500 605"/>
  <text x="553" y="566" style="font-size:26px">3,26</text>
  <path class="p3" d="M 605 605 L 710 605 L 710 500 L 605 500 L 605 605"/>
  <text x="658" y="566" style="font-size:26px">3,27</text>
  <path class="p3" d="M 290 185 L 395 185 L 395 80 L 290 80 L 290 185"/>
  <text x="343" y="145" style="font-size:25px">3,38</text>
  <line x1="290" y1="80" x2="395" y2="80"/>
  <path class="p3" d="M 395 185 L 500 185 L 500 80 L 395 80 L 395 185"/>
  <text x="448" y="145" style="font-size:25px">3,39</text>
  <line x1="395" y1="80" x2="500" y2="80"/>
  <path class="p3" d="M 290 920 L 395 920 L 395 815 L 290 815 L 290 920"/>
  <text x="343" y="880" style="font-size:25px">3,40</text>
  <line x1="290" y1="920" x2="395" y2="920"/>
  <path class="p3" d="M 395 920 L 500 920 L 500 815 L 395 815 L 395 920"/>
  <text x="448" y="880" style="font-size:25px">3,41</text>
  <line x1="395" y1="920" x2="500" y2="920"/>
  <path class="p3" d="M 290 815 L 395 815 L 395 710 L 290 710 L 290 815"/>
  <text x="343" y="775" style="font-size:25px">3,42</text>
  <path class="p3" d="M 395 815 L 500 815 L 500 710 L 395 710 L 395 815"/>
  <text x="448" y="776" style="font-size:26px">3,43</text>
  <path class="p3" d="M 80 710 L 185 710 L 185 605 L 80 605 L 80 710"/>
  <text x="133" y="670" style="font-size:25px">3,44</text>
  <line x1="80" y1="710" x2="80" y2="605"/>
  <path class="p3" d="M 185 710 L 290 710 L 290 605 L 185 605 L 185 710"/>
  <text x="238" y="670" style="font-size:25px">3,45</text>
  <path class="p3" d="M 80 605 L 185 605 L 185 500 L 80 500 L 80 605"/>
  <text x="133" y="565" style="font-size:25px">3,46</text>
  <line x1="80" y1="605" x2="80" y2="500"/>
  <path class="p3" d="M 185 605 L 290 605 L 290 500 L 185 500 L 185 605"/>
  <text x="238" y="566" style="font-size:26px">3,47</text>
  <path class="p3" d="M 500 920 L 605 920 L 605 815 L 500 815 L 500 920"/>
  <text x="553" y="880" style="font-size:25px">3,48</text>
  <line x1="500" y1="920" x2="605" y2="920"/>
  <path class="p3" d="M 605 920 L 710 920 L 710 815 L 605 815 L 605 920"/>
  <text x="658" y="880" style="font-size:25px">3,49</text>
  <line x1="605" y1="920" x2="710" y2="920"/>
  <path class="p3" d="M 500 815 L 605 815 L 605 710 L 500 710 L 500 815"/>
  <text x="553" y="776" style="font-size:26px">3,50</text>
  <path class="p3" d="M 605 815 L 710 815 L 710 710 L 605 710 L 605 815"/>
  <text x="658" y="775" style="font-size:25px">3,51</text>
  <path class="p3" d="M 710 920 L 815 920 L 815 815 L 710 815 L 710 920"/>
  <text x="763" y="880" style="font-size:24px">3,52</text>
  <line x1="710" y1="920" x2="815" y2="920"/>
  <path class="p3" d="M 815 920 L 920 920 L 920 815 L 815 815 L 815 920"/>
  <text x="868" y="880" style="font-size:24px">3,53</text>
  <line x1="920" y1="920" x2="920" y2="815"/>
  <line x1="815" y1="920" x2="920" y2="920"/>
  <path class="p3" d="M 710 815 L 815 815 L 815 710 L 710 710 L 710 815"/>
  <text x="763" y="775" style="font-size:25px">3,54</text>
  <path class="p3" d="M 815 815 L 920 815 L 920 710 L 815 710 L 815 815"/>
  <text x="868" y="775" style="font-size:24px">3,55</text>
  <line x1="920" y1="815" x2="920" y2="710"/>
  <path class="p3" d="M 80 290 L 185 290 L 185 185 L 80 185 L 80 290"/>
  <text x="133" y="250" style="font-size:24px">3,56</text>
  <line x1="80" y1="290" x2="80" y2="185"/>
  <path class="p3" d="M 185 290 L 290 290 L 290 185 L 185 185 L 185 290"/>
  <text x="238" y="250" style="font-size:25px">3,57</text>
  <path class="p3" d="M 80 185 L 185 185 L 185 80 L 80 80 L 80 185"/>
  <text x="133" y="145" style="font-size:24px">3,58</text>
  <line x1="80" y1="185" x2="80" y2="80"/>
  <line x1="80" y1="80" x2="185" y2="80"/>
  <path class="p3" d="M 185 185 L 290 185 L 290 80 L 185 80 L 185 185"/>
  <text x="238" y="145" style="font-size:24px">3,59</text>
  <line x1="185" y1="80" x2="290" y2="80"/>
  <path class="p4" d="M 290 500 L 343 500 L 343 448 L 290 448 L 290 500"/>
  <text x="316" y="480" style="font-size:13px">4,0</text>
  <path class="p4" d="M 343 500 L 395 500 L 395 448 L 343 448 L 343 500"/>
  <text x="369" y="480" style="font-size:13px">4,1</text>
  <path class="p4" d="M 290 448 L 343 448 L 343 395 L 290 395 L 290 448"/>
  <text x="316" y="428" style="font-size:13px">4,2</text>
  <path class="p4" d="M 343 448 L 395 448 L 395 395 L 343 395 L 343 448"/>
  <text x="369" y="428" style="font-size:13px">4,3</text>
  <path class="p4" d="M 290 395 L 343 395 L 343 343 L 290 343 L 290 395"/>
  <text x="316" y="375" style="font-size:13px">4,4</text>
  <path class="p4" d="M 343 395 L 395 395 L 395 343 L 343 343 L 343 395"/>
  <text x="369" y="375" style="font-size:13px">4,5</text>
  <path class="p4" d="M 290 343 L 343 343 L 343 290 L 290 290 L 290 343"/>
  <text x="316" y="323" style="font-size:13px">4,6</text>
  <path class="p4" d="M 343 343 L 395 343 L 395 290 L 343 290 L 343 343"/>
  <text x="369" y="323" style="font-size:13px">4,7</text>
  <path class="p4" d="M 395 395 L 448 395 L 448 343 L 395 343 L 395 395"/>
  <text x="421" y="375" style="font-size:13px">4,8</text>
  <path class="p4" d="M 448 395 L 500 395 L 500 343 L 448 343 L 448 395"/>
  <text x="474" y="375" style="font-size:13px">4,9</text>
  <path class="p4" d="M 395 343 L 448 343 L 448 290 L 395 290 L 395 343"/>
  <text x="421" y="323" style="font-size:13px">4,10</text>
  <path class="p4" d="M 448 343 L 500 343 L 500 290 L 448 290 L 448 343"/>
  <text x="474" y="323" style="font-size:13px">4,11</text>
  <path class="p4" d="M 500 500 L 553 500 L 553 448 L 500 448 L 500 500"/>
  <text x="526" y="480" style="font-size:13px">4,12</text>
  <path class="p4" d="M 553 500 L 605 500 L 605 448 L 553 448 L 553 500"/>
  <text x="579" y="480" style="font-size:13px">4,13</text>
  <path class="p4" d="M 500 448 L 553 448 L 553 395 L 500 395 L 500 448"/>
  <text x="526" y="428" style="font-size:13px">4,14</text>
  <path class="p4" d="M 553 448 L 605 448 L 605 395 L 553 395 L 553 448"/>
  <text x="579" y="428" style="font-size:13px">4,15</text>
  <path class="p4" d="M 710 500 L 763 500 L 763 448 L 710 448 L 710 500"/>
  <text x="736" y="480" style="font-size:13px">4,16</text>
  <path class="p4" d="M 763 500 L 815 500 L 815 448 L 763 448 L 763 500"/>
  <text x="789" y="480" style="font-size:13px">4,17</text>
  <path class="p4" d="M 710 448 L 763 448 L 763 395 L 710 395 L 710 448"/>
  <text x="736" y="428" style="font-size:13px">4,18</text>
  <path class="p4" d="M 763 448 L 815 448 L 815 395 L 763 395 L 763 448"/>
  <text x="789" y="428" style="font-size:13px">4,19</text>
  <path class="p4" d="M 815 500 L 868 500 L 868 448 L 815 448 L 815 500"/>
  <text x="841" y="480" style="font-size:13px">4,20</text>
  <path class="p4" d="M 868 500 L 920 500 L 920 448 L 868 448 L 868 500"/>
  <text x="894" y="480" style="font-size:12px">4,21</text>
  <line x1="920" y1="500" x2="920" y2="448"/>
  <path class="p4" d="M 815 448 L 868 448 L 868 395 L 815 395 L 815 448"/>
  <text x="841" y="428" style="font-size:13px">4,22</text>
  <path class="p4" d="M 868 448 L 920 448 L 920 395 L 868 395 L 868 448"/>
  <text x="894" y="427" style="font-size:12px">4,23</text>
  <line x1="920" y1="448" x2="920" y2="395"/>
  <path class="p4" d="M 290 710 L 343 710 L 343 658 L 290 658 L 290 710"/>
  <text x="316" y="690" style="font-size:13px">4,24</text>
  <path class="p4" d="M 343 710 L 395 710 L 395 658 L 343 658 L 343 710"/>
  <text x="369" y="690" style="font-size:13px">4,25</text>
  <path class="p4" d="M 290 658 L 343 658 L 343 605 L 290 605 L 290 658"/>
  <text x="316" y="638" style="font-size:13px">4,26</text>
  <path class="p4" d="M 343 658 L 395 658 L 395 605 L 343 605 L 343 658"/>
  <text x="369" y="638" style="font-size:13px">4,27</text>
  <path class="p4" d="M 395 710 L 448 710 L 448 658 L 395 658 L 395 710"/>
  <text x="421" y="690" style="font-size:13px">4,28</text>
  <path class="p4" d="M 448 710 L 500 710 L 500 658 L 448 658 L 448 710"/>
  <text x="474" y="690" style="font-size:13px">4,29</text>
  <path class="p4" d="M 395 658 L 448 658 L 448 605 L 395 605 L 395 658"/>
  <text x="421" y="638" style="font-size:13px">4,30</text>
  <path class="p4" d="M 448 658 L 500 658 L 500 605 L 448 605 L 448 658"/>
  <text x="474" y="638" style="font-size:13px">4,31</text>
  <path class="p4" d="M 290 605 L 343 605 L 343 553 L 290 553 L 290 605"/>
  <text x="316" y="585" style="font-size:13px">4,32</text>
  <path class="p4" d="M 343 605 L 395 605 L 395 553 L 343 553 L 343 605"/>
  <text x="369" y="585" style="font-size:13px">4,33</text>
  <path class="p4" d="M 290 553 L 343 553 L 343 500 L 290 500 L 290 553"/>
  <text x="316" y="533" style="font-size:13px">4,34</text>
  <path class="p4" d="M 343 553 L 395 553 L 395 500 L 343 500 L 343 553"/>
  <text x="369" y="533" style="font-size:13px">4,35</text>
  <path class="p4" d="M 500 710 L 553 710 L 553 658 L 500 658 L 500 710"/>
  <text x="526" y="690" style="font-size:13px">4,36</text>
  <path class="p4" d="M 553 710 L 605 710 L 605 658 L 553 658 L 553 710"/>
  <text x="579" y="690" style="font-size:13px">4,37</text>
  <path class="p4" d="M 500 658 L 553 658 L 553 605 L 500 605 L 500 658"/>
  <text x="526" y="638" style="font-size:13px">4,38</text>
  <path class="p4" d="M 553 658 L 605 658 L 605 605 L 553 605 L 553 658"/>
  <text x="579" y="638" style="font-size:13px">4,39</text>
  <path class="p4" d="M 605 710 L 658 710 L 658 658 L 605 658 L 605 710"/>
  <text x="631" y="690" style="font-size:13px">4,40</text>
  <path class="p4" d="M 658 710 L 710 710 L 710 658 L 658 658 L 658 710"/>
  <text x="684" y="690" style="font-size:13px">4,41</text>
  <path class="p4" d="M 605 658 L 658 658 L 658 605 L 605 605 L 605 658"/>
  <text x="631" y="638" style="font-size:13px">4,42</text>
  <path class="p4" d="M 658 658 L 710 658 L 710 605 L 658 605 L 658 658"/>
  <text x="684" y="638" style="font-size:13px">4,43</text>
  <path class="p4" d="M 710 710 L 763 710 L 763 658 L 710 658 L 710 710"/>
  <text x="736" y="690" style="font-size:13px">4,44</text>
  <path class="p4" d="M 763 710 L 815 710 L 815 658 L 763 658 L 763 710"/>
  <text x="789" y="690" style="font-size:13px">4,45</text>
  <path class="p4" d="M 710 658 L 763 658 L 763 605 L 710 605 L 710 658"/>
  <text x="736" y="638" style="font-size:13px">4,46</text>
  <path class="p4" d="M 763 658 L 815 658 L 815 605 L 763 605 L 763 658"/>
  <text x="789" y="638" style="font-size:13px">4,47</text>
  <path class="p4" d="M 815 710 L 868 710 L 868 658 L 815 658 L 815 710"/>
  <text x="841" y="690" style="font-size:12px">4,48</text>
  <path class="p4" d="M 868 710 L 920 710 L 920 658 L 868 658 L 868 710"/>
  <text x="894" y="690" style="font-size:12px">4,49</text>
  <line x1="920" y1="710" x2="920" y2="658"/>
  <path class="p4" d="M 815 658 L 868 658 L 868 605 L 815 605 L 815 658"/>
  <text x="841" y="638" style="font-size:13px">4,50</text>
  <path class="p4" d="M 868 658 L 920 658 L 920 605 L 868 605 L 868 658"/>
  <text x="894" y="637" style="font-size:12px">4,51</text>
  <line x1="920" y1="658" x2="920" y2="605"/>
  <path class="p4" d="M 710 605 L 763 605 L 763 553 L 710 553 L 710 605"/>
  <text x="736" y="585" style="font-size:13px">4,52</text>
  <path class="p4" d="M 763 605 L 815 605 L 815 553 L 763 553 L 763 605"/>
  <text x="789" y="585" style="font-size:13px">4,53</text>
  <path class="p4" d="M 710 553 L 763 553 L 763 500 L 710 500 L 710 553"/>
  <text x="736" y="533" style="font-size:13px">4,54</text>
  <path class="p4" d="M 763 553 L 815 553 L 815 500 L 763 500 L 763 553"/>
  <text x="789" y="533" style="font-size:13px">4,55</text>
  <path class="p4" d="M 815 605 L 868 605 L 868 553 L 815 553 L 815 605"/>
  <text x="841" y="585" style="font-size:13px">4,56</text>
  <path class="p4" d="M 868 605 L 920 605 L 920 553 L 868 553 L 868 605"/>
  <text x="894" y="585" style="font-size:12px">4,57</text>
  <line x1="920" y1="605" x2="920" y2="553"/>
  <path class="p4" d="M 815 553 L 868 553 L 868 500 L 815 500 L 815 553"/>
  <text x="841" y="533" style="font-size:13px">4,58</text>
  <path class="p4" d="M 868 553 L 920 553 L 920 500 L 868 500 L 868 553"/>
  <text x="894" y="532" style="font-size:12px">4,59</text>
  <line x1="920" y1="553" x2="920" y2="500"/>
  <path class="p4" d="M 80 500 L 133 500 L 133 448 L 80 448 L 80 500"/>
  <text x="106" y="480" style="font-size:12px">4,60</text>
  <line x1="80" y1="500" x2="80" y2="448"/>
  <path class="p4" d="M 133 500 L 185 500 L 185 448 L 133 448 L 133 500"/>
  <text x="159" y="480" style="font-size:13px">4,61</text>
  <path class="p4" d="M 80 448 L 133 448 L 133 395 L 80 395 L 80 448"/>
  <text x="106" y="427" style="font-size:12px">4,62</text>
  <line x1="80" y1="448" x2="80" y2="395"/>
  <path class="p4" d="M 133 448 L 185 448 L 185 395 L 133 395 L 133 448"/>
  <text x="159" y="428" style="font-size:13px">4,63</text>
  <path class="p4" d="M 185 500 L 238 500 L 238 448 L 185 448 L 185 500"/>
  <text x="211" y="480" style="font-size:13px">4,64</text>
  <path class="p4" d="M 238 500 L 290 500 L 290 448 L 238 448 L 238 500"/>
  <text x="264" y="480" style="font-size:13px">4,65</text>
  <path class="p4" d="M 185 448 L 238 448 L 238 395 L 185 395 L 185 448"/>
  <text x="211" y="428" style="font-size:13px">4,66</text>
  <path class="p4" d="M 238 448 L 290 448 L 290 395 L 238 395 L 238 448"/>
  <text x="264" y="428" style="font-size:13px">4,67</text>
  <path class="p4" d="M 80 395 L 133 395 L 133 343 L 80 343 L 80 395"/>
  <text x="106" y="375" style="font-size:12px">4,68</text>
  <line x1="80" y1="395" x2="80" y2="343"/>
  <path class="p4" d="M 133 395 L 185 395 L 185 343 L 133 343 L 133 395"/>
  <text x="159" y="375" style="font-size:13px">4,69</text>
  <path class="p4" d="M 80 343 L 133 343 L 133 290 L 80 290 L 80 343"/>
  <text x="106" y="322" style="font-size:12px">4,70</text>
  <line x1="80" y1="343" x2="80" y2="290"/>
  <path class="p4" d="M 133 343 L 185 343 L 185 290 L 133 290 L 133 343"/>
  <text x="159" y="322" style="font-size:12px">4,71</text>
  <path class="p4" d="M 185 395 L 238 395 L 238 343 L 185 343 L 185 395"/>
  <text x="211" y="375" style="font-size:13px">4,72</text>
  <path class="p4" d="M 238 395 L 290 395 L 290 343 L 238 343 L 238 395"/>
  <text x="264" y="375" style="font-size:13px">4,73</text>
  <path class="p4" d="M 185 343 L 238 343 L 238 290 L 185 290 L 185 343"/>
  <text x="211" y="323" style="font-size:13px">4,74</text>
  <path class="p4" d="M 238 343 L 290 343 L 290 290 L 238 290 L 238 343"/>
  <text x="264" y="323" style="font-size:13px">4,75</text>
  <path class="p4" d="M 290 290 L 343 290 L 343 238 L 290 238 L 290 290"/>
  <text x="316" y="270" style="font-size:13px">4,76</text>
  <path class="p4" d="M 343 290 L 395 290 L 395 238 L 343 238 L 343 290"/>
  <text x="369" y="270" style="font-size:13px">4,77</text>
  <path class="p4" d="M 290 238 L 343 238 L 343 185 L 290 185 L 290 238"/>
  <text x="316" y="218" style="font-size:13px">4,78</text>
  <path class="p4" d="M 343 238 L 395 238 L 395 185 L 343 185 L 343 238"/>
  <text x="369" y="218" style="font-size:13px">4,79</text>
  <path class="p4" d="M 395 290 L 448 290 L 448 238 L 395 238 L 395 290"/>
  <text x="421" y="270" style="font-size:13px">4,80</text>
  <path class="p4" d="M 448 290 L 500 290 L 500 238 L 448 238 L 448 290"/>
  <text x="474" y="270" style="font-size:13px">4,81</text>
  <path class="p4" d="M 395 238 L 448 238 L 448 185 L 395 185 L 395 238"/>
  <text x="421" y="218" style="font-size:13px">4,82</text>
  <path class="p4" d="M 448 238 L 500 238 L 500 185 L 448 185 L 448 238"/>
  <text x="474" y="218" style="font-size:13px">4,83</text>

 <!-- legend -->
 <rect x="1000" y="80" width="320" height="165"/>
 <text x="1013" y="107" style="text-anchor:start; font-weight:bold; font-size:18px">cell label</text>
  <text x="1020" y="134" style="text-anchor:start; font-style:oblique; font-size:18px">level_number,</text>
  <text x="1020" y="161" style="text-anchor:start; font-style:oblique; font-size:18px">cell_index</text>
  <text x="1000" y="274" style="text-anchor:start; font-size:18px">azimuth: 0°, polar: 0°</text>

 <!-- colorbar -->
 <text x="1000" y="356" style="text-anchor:start; font-weight:bold; font-size:18px">level_number</text>
  <rect class="r0" x="1000" y="810" width="25" height="110"/>
  <text x="1037.5" y="871" style="text-anchor:start; font-size:18px; font-weight:bold">0 min</text>
  <rect class="r1" x="1000" y="700" width="25" height="110"/>
  <text x="1037.5" y="761" style="text-anchor:start; font-size:18px">1</text>
  <rect class="r2" x="1000" y="590" width="25" height="110"/>
  <text x="1037.5" y="651" style="text-anchor:start; font-size:18px">2</text>
  <rect class="r3" x="1000" y="480" width="25" height="110"/>
  <text x="1037.5" y="541" style="text-anchor:start; font-size:18px">3</text>
  <rect class="r4" x="1000" y="370" width="25" height="110"/>
  <text x="1037.5" y="431" style="text-anchor:start; font-size:18px; font-weight:bold">4 max</text>

</svg>